Coordinates
version=1
nRows=17
nColumns=40
inDegrees=yes

Units are S.I. units (second, meters, Newtons, ...)
Angles are in degrees.

endheader
time	pelvis_tilt	pelvis_list	pelvis_rotation	pelvis_tx	pelvis_ty	pelvis_tz	hip_flexion_r	hip_adduction_r	hip_rotation_r	knee_angle_r	knee_angle_r_beta	ankle_angle_r	subtalar_angle_r	mtp_angle_r	hip_flexion_l	hip_adduction_l	hip_rotation_l	knee_angle_l	knee_angle_l_beta	ankle_angle_l	subtalar_angle_l	mtp_angle_l	lumbar_extension	lumbar_bending	lumbar_rotation	arm_flex_r	arm_add_r	arm_rot_r	elbow_flex_r	pro_sup_r	wrist_flex_r	wrist_dev_r	arm_flex_l	arm_add_l	arm_rot_l	elbow_flex_l	pro_sup_l	wrist_flex_l	wrist_dev_l
     40.70428571	     -5.64037473	     -4.31517810	    -15.13540491	      0.90601638	      0.92632042	      0.43234993	     23.70337049	     -0.75473070	     -3.28837750	     18.81491838	     18.81491838	      4.48239030	      9.11542981	      2.65812578	      9.09314298	     -4.39560719	    -12.96269738	     21.81338832	     21.81338832	     19.13913800	    -16.27661926	      5.17453492	     -9.95483456	      7.53058414	      1.81725700	    -16.84983014	    -10.63733762	     -8.09854334	     32.09255560	     45.61687235	      0.00000000	      0.00000000	     40.32627540	    -24.33715277	     -7.81993512	     72.40851926	     47.80510189	      0.00000000	      0.00000000
     40.72857143	     -5.68783529	     -4.12359103	    -15.47026198	      0.90620628	      0.92607558	      0.43655656	     23.10794942	     -0.66109761	     -3.61731891	     17.69319339	     17.69319339	      4.66989576	     10.40309473	      3.33713639	      8.35360919	     -4.35278745	    -13.43392668	     21.11178555	     21.11178555	     19.08617564	    -16.01140579	      4.71839955	     -9.80294012	      7.43556046	      1.96742060	    -16.76704210	    -10.60865767	     -7.92210797	     32.65522608	     45.58910995	      0.00000000	      0.00000000	     41.08139369	    -24.35125721	     -8.55496238	     73.93057545	     47.88773503	      0.00000000	      0.00000000
     40.75285714	     -5.94418846	     -3.94090203	    -15.71414817	      0.90639558	      0.92536281	      0.44106263	     22.98848255	     -0.46134094	     -3.55617211	     17.43679707	     17.43679707	      5.02795761	     10.63640915	      3.25698979	      8.07071931	     -4.41345843	    -13.60639568	     20.86641888	     20.86641888	     19.23865240	    -16.01004699	      4.65153354	     -9.29257806	      7.44952554	      1.99995327	    -16.41078736	    -10.56193766	     -7.89390996	     32.84380198	     45.58304054	      0.00000000	      0.00000000	     41.75897398	    -24.48078042	     -8.72327321	     74.35711926	     47.91135927	      0.00000000	      0.00000000
     40.77714286	     -5.84281523	     -3.80643679	    -15.93866038	      0.90708008	      0.92562597	      0.44583388	     22.22797882	     -0.34993349	     -3.72705891	     17.00375199	     17.00375199	      5.22364579	     11.24865983	      2.78285163	      7.02073249	     -4.38272235	    -14.04062717	     19.94140795	     19.94140795	     19.13489979	    -15.53906106	      4.36632647	     -9.32210739	      7.35146465	      2.22783829	    -15.96029955	    -10.54939859	     -7.76958088	     33.18210682	     45.57087751	      0.00000000	      0.00000000	     42.10376247	    -24.22749929	     -9.58219763	     75.96757511	     47.99988884	      0.00000000	      0.00000000
     40.80142857	     -5.97466625	     -3.73348192	    -16.04697435	      0.90771402	      0.92536916	      0.45086025	     21.80795016	     -0.07404415	     -3.64066274	     16.90551710	     16.90551710	      5.01322680	     11.03693465	      0.41920430	      6.45586859	     -4.54505741	    -14.26885659	     19.46791411	     19.46791411	     18.86704934	    -15.40444349	      3.45348529	     -9.07862123	      7.45189193	      1.67483487	    -15.06300738	    -10.72589512	     -7.37144213	     33.32717443	     45.56919322	      0.00000000	      0.00000000	     41.41695293	    -24.32351192	    -11.63120818	     78.22594063	     48.17076126	      0.00000000	      0.00000000
     40.82571429	     -6.01445252	     -3.70931247	    -16.09461465	      0.90838227	      0.92538332	      0.45620034	     21.43816088	      0.21128313	     -3.48331477	     17.23798631	     17.23798631	      5.52758419	     10.77277483	     -0.18363277	      5.79943961	     -4.73894699	    -14.32903337	     19.05482034	     19.05482034	     18.90313807	    -15.19689932	      3.50434834	     -8.90905196	      7.48622802	      1.74949397	    -14.48821670	    -10.81986254	     -7.25936366	     33.33079936	     45.57086990	      0.00000000	      0.00000000	     41.67714970	    -24.27801920	    -11.70510543	     78.45652951	     48.18105799	      0.00000000	      0.00000000
     40.85000000	     -6.03973108	     -3.72717256	    -16.04092527	      0.90908005	      0.92551703	      0.46168286	     21.03159281	      0.53782019	     -3.27961277	     17.55847568	     17.55847568	      5.94398902	     10.22886284	     -0.88871156	      5.14759981	     -5.00698334	    -14.43644411	     18.66744165	     18.66744165	     18.90497361	    -14.89390865	      3.54997022	     -8.78660687	      7.61716403	      1.83259362	    -13.89679700	    -10.95048070	     -7.15100659	     33.23648718	     45.57784179	      0.00000000	      0.00000000	     41.73721267	    -24.11385489	    -11.90173963	     78.75545001	     48.19921260	      0.00000000	      0.00000000
     40.87428571	     -6.09699921	     -3.77229954	    -15.94454658	      0.90966280	      0.92569057	      0.46750082	     20.61138135	      0.94371455	     -3.05467144	     17.75703868	     17.75703868	      6.25801656	      9.46221072	     -1.61095919	      4.60223624	     -5.37361472	    -14.56909867	     18.43170873	     18.43170873	     18.90892316	    -14.54758526	      3.53186340	     -8.63539765	      7.65987733	      1.82855641	    -13.30473392	    -11.08668476	     -7.03499635	     33.03456594	     45.59027633	      0.00000000	      0.00000000	     41.63520601	    -23.98563347	    -12.23120752	     78.99747885	     48.22389149	      0.00000000	      0.00000000
     40.89857143	     -6.16109703	     -3.86415217	    -15.74324328	      0.91011348	      0.92594228	      0.47348804	     20.18010127	      1.41258348	     -2.76826895	     17.87560071	     17.87560071	      6.46831687	      8.53542332	     -2.30818405	      4.12730882	     -5.84677328	    -14.69558555	     18.29834330	     18.29834330	     18.85763458	    -14.03968115	      3.43275890	     -8.50391937	      7.71572421	      1.68386322	    -12.62918402	    -11.24355065	     -6.87407259	     32.68977793	     45.60976047	      0.00000000	      0.00000000	     41.40682405	    -23.85777603	    -12.65020284	     79.16592946	     48.25190595	      0.00000000	      0.00000000
     40.92285714	     -6.20322862	     -3.98055420	    -15.43890882	      0.91046756	      0.92623783	      0.47950172	     19.76257640	      1.85602974	     -2.69441368	     18.01937465	     18.01937465	      6.77328293	      7.83527793	     -2.66735226	      3.69909949	     -6.36088276	    -14.72882760	     18.25267243	     18.25267243	     18.75440920	    -13.57677844	      3.31518862	     -8.40062920	      7.77790445	      1.55843559	    -12.14746672	    -11.43260929	     -6.74224698	     32.40825165	     45.62632320	      0.00000000	      0.00000000	     41.15900565	    -23.74151746	    -12.87201994	     79.15396297	     48.26360736	      0.00000000	      0.00000000
     40.94714286	     -6.32722738	     -3.95208707	    -15.13078779	      0.91060080	      0.92640177	      0.48561178	     19.48774653	      2.12912458	     -2.87498649	     18.12029716	     18.12029716	      7.12080163	      7.67680367	     -2.78986053	      3.45442464	     -6.73624192	    -14.59950179	     18.25981557	     18.25981557	     18.57651462	    -13.45321257	      3.37477509	     -8.17790659	      7.57850618	      1.57164428	    -12.00803343	    -11.55608277	     -6.75440386	     32.43558343	     45.62777774	      0.00000000	      0.00000000	     41.01903467	    -23.61251573	    -12.83420259	     79.11631633	     48.25936841	      0.00000000	      0.00000000
     40.97142857	     -6.32377229	     -4.10412251	    -14.59667997	      0.91074674	      0.92675179	      0.49150853	     19.10874208	      2.51376767	     -3.18593047	     18.34509266	     18.34509266	      7.48282290	      7.22136666	     -2.88463306	      3.04658059	     -7.27682895	    -14.32753353	     18.21551989	     18.21551989	     18.45363557	    -13.08080441	      3.35553859	     -8.11864050	      7.59965954	      1.37317481	    -11.81494506	    -11.77970620	     -6.76603163	     32.42955432	     45.63198299	      0.00000000	      0.00000000	     40.61714372	    -23.22569931	    -12.70321996	     78.93942625	     48.24445553	      0.00000000	      0.00000000
     40.99571429	     -6.32813722	     -4.30927973	    -14.14449646	      0.91064690	      0.92715221	      0.49779657	     18.59145930	      3.13651149	     -2.88359697	     18.25002032	     18.25002032	      7.80096802	      5.94841971	     -2.43686415	      2.69030186	     -8.07176669	    -14.81130692	     18.33571234	     18.33571234	     18.38402764	    -11.72477810	      2.70784073	     -8.07879650	      7.61622027	      1.22001653	    -11.48934922	    -11.97047295	     -6.58305955	     32.02996919	     45.64936875	      0.00000000	      0.00000000	     40.27884980	    -23.13029027	    -12.79938822	     78.30389845	     48.23589051	      0.00000000	      0.00000000
     41.02000000	     -6.38274846	     -4.27909956	    -13.56955562	      0.91031082	      0.92735913	      0.50354914	     18.31067928	      3.33908084	     -3.26651899	     18.33915592	     18.33915592	      8.14901656	      5.67109606	     -2.50096417	      2.50246837	     -8.46587235	    -14.52992226	     18.36005622	     18.36005622	     18.16560793	    -11.40248978	      2.71099787	     -7.96954352	      7.40401210	      1.16423721	    -11.43316425	    -12.12155817	     -6.58371689	     31.99724643	     45.65256125	      0.00000000	      0.00000000	     39.82486712	    -22.79695716	    -12.66903231	     78.14255695	     48.22096877	      0.00000000	      0.00000000
     41.04428571	     -6.43459726	     -4.26600736	    -12.94699244	      0.90981260	      0.92755501	      0.50914666	     18.01408027	      3.55580749	     -3.67724977	     18.37712388	     18.37712388	      8.47121100	      5.35960531	     -2.51906365	      2.34077402	     -8.89118979	    -14.25327482	     18.38020675	     18.38020675	     17.97172606	    -10.93837480	      2.66356247	     -7.84253306	      7.19481017	      1.10405357	    -11.36057502	    -12.25876567	     -6.57446666	     31.95034576	     45.65598509	      0.00000000	      0.00000000	     39.22558607	    -22.41372229	    -12.49969119	     77.88238884	     48.20062271	      0.00000000	      0.00000000
     41.06857143	     -6.51508043	     -4.24888251	    -12.25074733	      0.90916874	      0.92770136	      0.51452171	     17.70133191	      3.76352531	     -4.12712147	     18.31737979	     18.31737979	      8.83190773	      5.01542534	     -2.48563673	      2.27000389	     -9.35276947	    -14.07386758	     18.42559341	     18.42559341	     17.79132081	    -10.25575120	      2.54281516	     -7.69710570	      7.04732234	      1.05483607	    -11.22561601	    -12.37286977	     -6.53788791	     31.86282504	     45.66046094	      0.00000000	      0.00000000	     38.47042556	    -21.98514393	    -12.26786263	     77.47723207	     48.17226207	      0.00000000	      0.00000000
     41.09285714	     -6.57198156	     -4.19006219	    -11.51177796	      0.90827642	      0.92783804	      0.51964944	     17.38914898	      3.90734390	     -4.58279764	     18.24850967	     18.24850967	      9.16219307	      4.69825191	     -2.46645218	      2.26149763	     -9.76206702	    -13.81085227	     18.52825882	     18.52825882	     17.62960080	     -9.59136628	      2.43596606	     -7.60267956	      6.77745619	      1.00344992	    -11.01997591	    -12.44632865	     -6.49893580	     31.80118654	     45.66387152	      0.00000000	      0.00000000	     37.63800953	    -21.47437473	    -11.99248033	     77.05787381	     48.14012534	      0.00000000	      0.00000000
